<svg width="36" height="35" viewBox="0 0 36 35" fill="none" xmlns="http://www.w3.org/2000/svg">
<rect width="35" height="10.2692" rx="5.13462" transform="matrix(-3.89032e-08 -1 -1 4.91139e-08 10.2693 35)" fill="#6F6C76"/>
<path d="M0.00012207 11.1538L0.000121252 29.8653C0.000121128 32.7011 2.29897 35 5.13474 35V35C7.97051 35 10.2694 32.7011 10.2694 29.8653L10.2694 11.1538L0.00012207 11.1538Z" fill="#8670FF"/>
<rect width="35" height="10.2692" rx="5.13462" transform="matrix(-3.89032e-08 -1 -1 4.91139e-08 22.9617 35)" fill="#6F6C76"/>
<path d="M12.6925 20.7693L12.6925 29.8654C12.6925 32.7012 14.9914 35.0001 17.8271 35.0001V35.0001C20.6629 35.0001 22.9617 32.7012 22.9617 29.8654L22.9617 20.7693L12.6925 20.7693Z" fill="#8670FF"/>
<rect width="35" height="10.2692" rx="5.13462" transform="matrix(-3.89032e-08 -1 -1 4.91139e-08 35.6541 35)" fill="#6F6C76"/>
<path d="M25.3848 16.9231L25.3848 29.8654C25.3848 32.7012 27.6836 35 30.5194 35V35C33.3552 35 35.654 32.7012 35.654 29.8654L35.654 16.9231L25.3848 16.9231Z" fill="#8670FF"/>
</svg>
